<svg id="icons" enable-background="new 0 0 64 64" height="512" viewBox="0 0 64 64" width="512" xmlns="http://www.w3.org/2000/svg"><path d="m60.33 50.5-2.66-4-4.67-7h-42l-2.67 4-7.33 11h8.85 44.3 8.85z" fill="#a0d468"/><path d="m29.9 44.5c-1.2-1.221-2.801-2.939-4.471-5-4.029-4.99-8.429-12.04-8.429-19 0-8.28 6.71-15 15-15s15 6.72 15 15c0 6.96-4.4 14.01-8.43 19-1.67 2.061-3.271 3.779-4.471 5h-.01c-1.26 1.27-2.09 2-2.09 2s-.829-.73-2.099-2z" fill="#ed5565"/><path d="m60.33 50.5h-5.99-.01l-4-4h7.34z" fill="#8cc152"/><path d="m38.1 48.5 4.33-4 5.44 9h-23.74l-4-4z" fill="#8cc152"/><g fill="#e6e9ed"><path d="m60.33 50.5 2.67 4h-8.85l-1.91-4z"/><path d="m32 46.5s.83-.73 2.09-2h.01 8.33l1.44 5h-23.74l1.44-5h8.33c1.27 1.27 2.1 2 2.1 2z"/><path d="m15.09 43.5-5.24 11h-8.85l7.33-11z"/></g><path d="m19.09 47.5-3.335 7h-5.905l5.24-11z" fill="#8cc152"/><path d="m63 54.5v4h-62v-4h8.85 44.3z" fill="#81b53e"/><path d="m57.67 46.5h-7.33-.01l-3.33-7h6z" fill="#e6e9ed"/><path d="m38 19.5c1.1 0 2 .9 2 2s-.9 2-2 2h-4v4c0 1.1-.9 2-2 2s-2-.9-2-2v-4h-.01-3.99c-1.1 0-2-.9-2-2s.9-2 2-2h3.99.01v-4c0-1.1.9-2 2-2s2 .9 2 2v4h.01z" fill="#e6e9ed"/><path d="m63 55.5h-62c-.369 0-.708-.203-.882-.528s-.154-.72.05-1.026l10-15c.305-.46.925-.584 1.387-.277.46.307.584.927.277 1.387l-8.964 13.444h58.264l-8.964-13.445c-.307-.46-.183-1.08.277-1.387.461-.307 1.081-.183 1.387.277l10 15c.204.307.224.701.05 1.026s-.513.529-.882.529z"/><path d="m63 59.5h-62c-.553 0-1-.447-1-1v-4c0-.553.447-1 1-1h62c.553 0 1 .447 1 1v4c0 .553-.447 1-1 1zm-61-2h60v-2h-60z"/><path d="m9.849 55.5c-.144 0-.29-.031-.43-.098-.498-.237-.71-.834-.472-1.333l5.243-11c.236-.497.83-.71 1.333-.472.498.237.71.834.472 1.333l-5.243 11c-.171.36-.529.57-.903.57z"/><path d="m20.134 50.5c-.092 0-.185-.013-.276-.039-.531-.152-.838-.706-.686-1.236l1.434-5c.151-.532.709-.838 1.236-.686.531.152.838.706.686 1.236l-1.434 5c-.125.44-.526.725-.96.725z"/><path d="m54.151 55.5c-.374 0-.732-.21-.903-.569l-1.908-4.002c-.238-.499-.026-1.096.472-1.333.503-.239 1.096-.025 1.333.472l1.908 4.002c.238.499.026 1.096-.472 1.333-.14.066-.286.097-.43.097z"/><path d="m50.335 47.495c-.374 0-.732-.21-.903-.569l-3.334-6.995c-.238-.499-.026-1.096.472-1.333.504-.24 1.097-.025 1.333.472l3.334 6.995c.238.499.026 1.096-.472 1.333-.14.066-.286.097-.43.097z"/><path d="m43.866 50.5c-.435 0-.834-.285-.96-.725l-1.434-5c-.152-.53.154-1.084.686-1.236.528-.151 1.084.153 1.236.686l1.434 5c.152.53-.154 1.084-.686 1.236-.091.026-.184.039-.276.039z"/><path d="m15.094 44.5h-6.761c-.553 0-1-.447-1-1s.447-1 1-1h6.761c.553 0 1 .447 1 1s-.448 1-1 1z"/><path d="m60.333 51.5h-8.089c-.553 0-1-.447-1-1s.447-1 1-1h8.089c.553 0 1 .447 1 1s-.447 1-1 1z"/><path d="m57.667 47.5h-7.33c-.553 0-1-.447-1-1s.447-1 1-1h7.33c.553 0 1 .447 1 1s-.447 1-1 1z"/><path d="m30 45.5h-8.434c-.553 0-1-.447-1-1s.447-1 1-1h8.434c.553 0 1 .447 1 1s-.447 1-1 1z"/><path d="m42.434 45.5h-8.341c-.553 0-1-.447-1-1s.447-1 1-1h8.341c.553 0 1 .447 1 1s-.448 1-1 1z"/><path d="m43.867 50.5h-23.734c-.553 0-1-.447-1-1s.447-1 1-1h23.734c.553 0 1 .447 1 1s-.447 1-1 1z"/><path d="m32 47.5c-.235 0-.471-.083-.659-.248-.626-.549-15.341-13.593-15.341-26.752 0-8.822 7.178-16 16-16s16 7.178 16 16c0 13.159-14.715 26.203-15.341 26.752-.188.165-.424.248-.659.248zm0-41c-7.72 0-14 6.28-14 14 0 10.734 11.144 21.944 14 24.641 2.856-2.696 14-13.906 14-24.641 0-7.72-6.28-14-14-14z"/><path d="m25.427 40.5h-14.427c-.553 0-1-.447-1-1s.447-1 1-1h14.427c.553 0 1 .447 1 1s-.448 1-1 1z"/><path d="m53 40.5h-14.428c-.553 0-1-.447-1-1s.447-1 1-1h14.428c.553 0 1 .447 1 1s-.447 1-1 1z"/><path d="m34 16.501c-.553 0-1-.447-1-1 0-.552-.448-1-1-1s-1 .448-1 1c0 .553-.447 1-1 1s-1-.447-1-1c0-1.654 1.346-3 3-3s3 1.346 3 3c0 .553-.447 1-1 1z"/><path d="m32 30.499c-1.654 0-3-1.346-3-3 0-.553.447-1 1-1s1 .447 1 1c0 .552.448 1 1 1s1-.448 1-1c0-.553.447-1 1-1s1 .447 1 1c0 1.654-1.346 3-3 3z"/><path d="m37.999 24.5c-.553 0-1-.447-1-1s.447-1 1-1c.552 0 1-.448 1-1s-.448-1-1-1c-.553 0-1-.447-1-1s.447-1 1-1c1.654 0 3 1.346 3 3s-1.346 3-3 3z"/><path d="m26.001 24.5c-1.654 0-3-1.346-3-3s1.346-3 3-3c.553 0 1 .447 1 1s-.447 1-1 1c-.552 0-1 .448-1 1s.448 1 1 1c.553 0 1 .447 1 1s-.447 1-1 1z"/><path d="m29.992 20.501h-3.992c-.553 0-1-.447-1-1s.447-1 1-1h3.992c.553 0 1 .447 1 1s-.447 1-1 1z"/><path d="m38 20.501h-3.992c-.553 0-1-.447-1-1s.447-1 1-1h3.992c.553 0 1 .447 1 1s-.447 1-1 1z"/><path d="m29.992 24.499h-3.992c-.553 0-1-.447-1-1s.447-1 1-1h3.992c.553 0 1 .447 1 1s-.447 1-1 1z"/><path d="m33.999 28.5c-.553 0-1-.447-1-1v-4.001c0-.553.447-1 1-1s1 .447 1 1v4.001c0 .553-.447 1-1 1z"/><path d="m30.001 28.5c-.553 0-1-.447-1-1v-4.001c0-.553.447-1 1-1s1 .447 1 1v4.001c0 .553-.447 1-1 1z"/><path d="m30.001 20.501c-.553 0-1-.447-1-1v-4.001c0-.553.447-1 1-1s1 .447 1 1v4.001c0 .553-.447 1-1 1z"/><path d="m33.999 20.501c-.553 0-1-.447-1-1v-4.001c0-.553.447-1 1-1s1 .447 1 1v4.001c0 .553-.447 1-1 1z"/><path d="m38 24.499h-4.001c-.553 0-1-.447-1-1s.447-1 1-1h4.001c.553 0 1 .447 1 1s-.447 1-1 1z"/></svg>